# xmcd CD database file
#
# Track frame offsets:
#	150
#	21942
#	44483
#	65107
#	97530
#	121979
#	147285
#	175778
#	208138
#	233014
#	273941
#
# Disc length: 4076 seconds
#
# Revision: 0
# Processed by: cddbd v1.5.2PL0 Copyright (c) Steve Scherf et al.
# Submitted via: CDex 1.51
#
DISCID=970fea0b
DTITLE=Happy Apple - Happy Apple Back On Top
DYEAR=2007
DGENRE=Jazz
TTITLE0=The New Bison
TTITLE1=Very Small Rock
TTITLE2=1996 a.d.
TTITLE3=Rise! Marc Anthony
TTITLE4=Calgon For Hetfield
TTITLE5=Lefse Los Cubanos
TTITLE6=He's OK
TTITLE7=Brown Lights
TTITLE8=Hence The Turtleneck
TTITLE9=Most popular To Succeed
TTITLE10=Density In dan's Fan City
EXTD=YEAR: 2007
EXTT0=
EXTT1=
EXTT2=
EXTT3=
EXTT4=
EXTT5=
EXTT6=
EXTT7=
EXTT8=
EXTT9=
EXTT10=
PLAYORDER=
